<?xml version="1.0" standalone="no"?>
<!DOCTYPE svg PUBLIC "-//W3C//DTD SVG 20010904//EN"
 "http://www.w3.org/TR/2001/REC-SVG-20010904/DTD/svg10.dtd">
<svg version="1.0" xmlns="http://www.w3.org/2000/svg"
 width="240.000000pt" height="240.000000pt" viewBox="0 0 240.000000 240.000000"
 preserveAspectRatio="xMidYMid meet">

<g transform="translate(0.000000,240.000000) scale(0.100000,-0.100000)"
fill="#000000" stroke="none">
<path d="M470 1898 c-47 -28 -115 -68 -152 -90 l-68 -40 0 -564 c0 -309 3
-565 8 -567 4 -3 6 246 4 554 -1 307 0 559 3 559 5 0 214 -119 535 -305 30
-18 131 -76 224 -129 l169 -97 153 88 c85 48 152 92 151 97 -3 9 -79 54 -602
354 -310 179 -334 192 -337 191 -2 0 -41 -23 -88 -51z"/>
<path d="M1755 1902 c-44 -27 -113 -68 -153 -91 -41 -24 -70 -47 -65 -51 8 -9
165 -100 253 -148 l45 -24 153 88 c83 49 152 92 152 96 0 4 -37 28 -82 53 -46
26 -112 64 -148 85 -36 21 -67 39 -70 39 -3 0 -41 -21 -85 -47z"/>
<path d="M980 996 c0 -2 7 -7 16 -10 8 -3 12 -2 9 4 -6 10 -25 14 -25 6z"/>
<path d="M1057 949 c7 -7 15 -10 18 -7 3 3 -2 9 -12 12 -14 6 -15 5 -6 -5z"/>
<path d="M1097 929 c7 -7 15 -10 18 -7 3 3 -2 9 -12 12 -14 6 -15 5 -6 -5z"/>
<path d="M1617 589 c7 -7 15 -10 18 -7 3 3 -2 9 -12 12 -14 6 -15 5 -6 -5z"/>
<path d="M430 535 c14 -8 30 -14 35 -14 6 0 -1 6 -15 14 -14 8 -29 14 -35 14
-5 0 1 -6 15 -14z"/>
<path d="M1720 530 c8 -5 20 -10 25 -10 6 0 3 5 -5 10 -8 5 -19 10 -25 10 -5
0 -3 -5 5 -10z"/>
<path d="M527 479 c7 -7 15 -10 18 -7 3 3 -2 9 -12 12 -14 6 -15 5 -6 -5z"/>
<path d="M1807 479 c7 -7 15 -10 18 -7 3 3 -2 9 -12 12 -14 6 -15 5 -6 -5z"/>
</g>
</svg>
